<mxfile host="app.diagrams.net" modified="2024-02-19T15:31:19.358Z" agent="Mozilla/5.0 (Macintosh; Intel Mac OS X 10_15_7) AppleWebKit/537.36 (KHTML, like Gecko) Chrome/121.0.0.0 Safari/537.36" version="21.5.0" etag="R8xX54N6qo1VUnvqS9eU" type="github">
  <diagram name="第 1 页" id="dLV8B7PmB_Wfx-uJp1rL">
    <mxGraphModel>
      <root>
        <mxCell id="0" />
        <mxCell id="1" parent="0" />
      </root>
    </mxGraphModel>
  </diagram>
</mxfile>
